<svg xmlns="http://www.w3.org/2000/svg"
shape-rendering="geometricPrecision"
width="4000" height="4000" viewBox="0 0 500 260">
  <metadata>null</metadata>

<path d="
M 98.83 22.749
C 102.239 21.794 106.484 22.419 110.007 22.409
C 117.34 22.387 124.673 22.369 132.007 22.383
C 146.34 22.409 160.674 22.385 175.008 22.396
C 181.927 22.401 189.068 21.894 195.962 22.447
C 207.163 36.566 219.577 49.709 231.07 63.586
C 234.208 67.374 237.497 71.069 240.727 74.783
C 242.097 76.358 244.596 78.527 245.324 80.468
C 244.659 82.629 241.615 85.03 240.064 86.641
C 226.345 102.163 212.557 117.648 198.634 132.982
C 198.818 134.492 201.174 136.408 202.185 137.563
C 205.197 141 208.244 144.515 211.059 148.113
C 215.958 154.375 221.309 160.305 226.468 166.352
C 230.097 170.607 233.436 175.112 237.071 179.361
C 239.177 181.822 241.155 184.39 243.287 186.831
C 244.691 188.439 246.544 190.028 247.677 191.832
C 247.299 193.373 244.662 195.343 243.583 196.549
C 240.274 200.25 237.101 204.071 233.878 207.847
C 226.407 216.599 218.52 225.003 211.067 233.772
C 207.674 237.764 204.199 241.683 200.776 245.644
C 199.077 247.611 197.4 250.164 195.403 251.811
C 192.687 252.593 188.843 251.917 186.005 251.928
C 179.338 251.954 172.672 251.944 166.005 251.936
C 143.685 251.91 121.243 251.264 98.938 251.997
C 98.21 243.77 98.791 235.269 98.772 227.007
C 98.735 210.174 98.779 193.34 98.781 176.506
C 98.787 125.256 98.987 73.997 98.83 22.749 Z
M 105.02 30.109
C 104.878 32.602 104.912 35.164 104.892 37.667
C 104.884 38.693 104.639 39.979 104.999 40.934
C 109.802 42.6 113.322 47.42 117.949 49.396
C 118.314 48.769 118.165 47.531 118.183 46.796
C 118.232 44.819 118.372 42.851 118.445 40.881
C 123.906 40.21 129.573 40.59 135.065 40.61
C 143.879 40.641 152.693 40.598 161.508 40.605
C 167.007 40.609 172.506 40.604 178.005 40.575
C 180.66 40.561 183.768 40.134 186.368 40.672
C 188.982 44.611 192.633 48.183 195.784 51.706
C 201.111 57.661 206.229 63.846 211.353 69.974
C 213.412 72.436 215.486 74.895 217.579 77.328
C 218.332 78.204 219.835 79.352 220.04 80.494
C 219.543 81.728 218.191 82.978 217.306 83.974
C 215.215 86.324 213.087 88.643 210.949 90.949
C 205.042 97.32 199.431 103.957 193.525 110.33
C 191.918 112.063 190.355 113.836 188.744 115.565
C 188.046 116.315 187.405 117.376 186.49 117.856
C 182.579 118.301 178.447 117.947 174.51 117.94
C 167.01 117.926 159.51 117.909 152.01 117.936
C 149.176 117.946 146.341 117.969 143.507 117.949
C 142.836 117.944 141.18 117.687 140.799 118.266
C 140.769 122.069 141.082 126.001 140.669 129.781
C 143.053 129.985 145.601 129.67 148.007 129.684
C 153.841 129.717 159.675 129.772 165.509 129.775
C 174.664 129.779 184.142 130.46 193.262 129.648
C 195.178 127.698 196.758 125.347 198.608 123.317
C 204.484 116.869 210.201 110.281 216.067 103.826
C 220.613 98.823 225.15 93.814 229.701 88.816
C 232.189 86.083 235.103 83.398 237.324 80.46
C 236.513 78.482 234.012 76.431 232.588 74.838
C 229.444 71.321 226.422 67.697 223.289 64.169
C 216.584 56.621 209.967 48.95 203.468 41.221
C 200.042 37.147 196.769 32.697 193.071 28.883
C 190.835 28.443 188.278 28.774 186 28.775
C 181.167 28.777 176.334 28.789 171.501 28.791
C 156.5 28.799 141.499 28.753 126.498 28.75
C 121.166 28.748 115.833 28.77 110.5 28.775
C 109.199 28.777 106.072 28.253 105.126 29.16
C 105.07 29.874 105.113 29.559 105.02 30.109 Z
M 105.059 50.109
C 105.482 55.968 104.954 61.956 104.933 67.82
C 104.892 79.145 104.982 90.471 104.934 101.797
C 104.811 131.181 105.152 160.599 105.138 189.995
C 105.132 203.162 105.161 216.33 105.174 229.497
C 105.178 233.329 105.202 237.162 105.181 240.995
C 105.174 242.376 104.706 244.474 105.179 245.758
C 112.369 244.744 120.247 245.639 127.507 245.639
C 141.174 245.639 154.843 245.457 168.509 245.594
C 174.174 245.65 179.839 245.675 185.504 245.686
C 187.585 245.69 190.713 246.286 192.672 245.645
C 196.25 240.007 201.45 234.991 205.855 229.98
C 217.036 217.261 228.44 204.71 239.508 191.896
C 239.094 190.26 236.446 188.198 235.339 186.927
C 231.887 182.965 228.594 178.87 225.159 174.896
C 214.223 162.24 203.519 149.322 193.059 136.278
C 187.801 135.764 182.292 136.165 177.005 136.139
C 164.238 136.077 151.471 136.13 138.704 136.05
C 131.954 136.007 125.035 136.39 118.317 135.701
C 117.675 133.23 118.162 130.056 118.158 127.503
C 118.15 122.002 118.192 116.502 118.181 111.002
C 118.146 93.052 118.211 75.1 118.064 57.152
C 115.421 55.407 112.688 53.788 110.053 52.02
C 108.467 50.955 106.949 49.649 105.102 49.122
C 105.088 49.451 105.074 49.78 105.059 50.109 Z
M 124.501 48.126
C 124.4 49.923 124.044 52.182 124.509 53.929
C 128.245 55.721 131.66 58.186 135.145 60.406
C 136.942 61.552 139.353 62.528 140.871 64.007
C 140.368 68.594 140.73 73.387 140.751 77.998
C 140.8 89.16 141.365 100.523 140.732 111.663
C 144.768 111.293 148.954 111.601 153.008 111.621
C 160.174 111.658 167.34 111.662 174.506 111.646
C 177.553 111.639 180.729 111.923 183.759 111.621
C 185.158 110.447 186.141 108.805 187.372 107.462
C 190.044 104.55 192.669 101.615 195.262 98.632
C 200.661 92.422 206.587 86.606 211.909 80.35
C 209.393 76.353 205.417 72.726 202.306 69.161
C 195.932 61.857 189.579 54.515 183.402 47.045
C 181.938 46.423 179.593 46.903 178.007 46.906
C 174.174 46.913 170.34 46.883 166.506 46.875
C 157.339 46.856 148.171 46.845 139.004 46.844
C 134.337 46.843 129.194 46.318 124.588 47.025
C 124.545 47.871 124.583 47.505 124.501 48.126 Z
M 124.48 62.611
C 123.761 68.936 124.378 75.637 124.37 82.002
C 124.348 97.84 124.928 113.787 124.395 129.612
C 127.507 130.547 131.444 128.98 134.691 129.675
C 134.152 128.147 134.585 125.633 134.591 124.002
C 134.605 120.168 134.583 116.335 134.595 112.501
C 134.627 102.53 134.462 92.557 134.486 82.587
C 134.497 77.778 135.217 72.533 134.649 67.774
C 131.235 65.644 127.927 63.325 124.49 61.259
C 124.487 61.71 124.483 62.161 124.48 62.611 Z"
opacity="1" fill="rgba(255, 255, 255, 1)" fill-rule="evenodd" />
<path d="
M 118.222 147.735
C 133.068 146.919 148.135 147.765 163.009 147.747
C 168.174 147.74 173.34 147.726 178.506 147.697
C 180.877 147.683 183.73 147.238 186.037 147.793
C 189.122 152.233 192.999 156.229 196.459 160.38
C 202.154 167.212 207.638 174.221 213.327 181.058
C 215.619 183.813 217.933 186.549 220.203 189.322
C 220.583 189.787 222.399 191.307 222.297 191.817
C 221.78 192.999 220.418 193.994 219.537 194.917
C 217.582 196.966 215.786 199.245 213.946 201.402
C 207.512 208.943 201.226 216.785 194.409 223.982
C 192.337 226.169 190.425 228.534 188.455 230.812
C 187.617 231.781 186.672 233.361 185.471 233.878
C 182.198 234.116 178.789 233.788 175.499 233.788
C 167.832 233.788 160.165 233.763 152.498 233.754
C 144.83 233.744 137.163 233.748 129.495 233.725
C 125.773 233.714 121.919 233.988 118.213 233.68
C 117.88 229.492 118.163 225.204 118.178 221.001
C 118.203 213.668 118.204 206.335 118.199 199.001
C 118.186 181.946 117.623 164.776 118.222 147.735 Z
M 124.481 155.13
C 123.634 169.162 124.447 183.449 124.429 197.508
C 124.423 202.255 124.967 207.346 124.429 212.052
C 125.528 211.661 126.41 210.791 127.393 210.182
C 129.771 208.71 132.099 207.155 134.454 205.647
C 134.927 204.459 134.457 202.454 134.458 201.145
C 134.461 197.758 134.481 194.385 134.477 190.997
C 134.464 178.821 133.888 166.499 134.45 154.343
C 133.967 153.744 132.714 154.065 131.993 154.09
C 129.558 154.172 127.121 154.039 124.692 154.025
C 124.487 154.844 124.543 154.473 124.481 155.13 Z
M 124.302 220.48
C 124.491 222.747 124.565 225.246 124.372 227.513
C 125.742 227.925 128.018 227.352 129.502 227.352
C 133.835 227.353 138.169 227.352 142.503 227.36
C 151.483 227.375 160.463 227.404 169.442 227.405
C 173.866 227.406 178.505 227.844 182.904 227.363
C 184.923 225.398 186.624 222.921 188.508 220.806
C 194.104 214.522 199.549 208.109 205.081 201.769
C 207.149 199.4 209.168 196.971 211.292 194.653
C 212.058 193.815 213.627 192.697 213.955 191.605
C 210.105 187.941 206.902 183.233 203.546 179.113
C 198.569 173.003 193.364 167.078 188.404 160.954
C 186.632 158.765 185.057 156.17 183.101 154.164
C 169.028 153.855 154.842 153.98 140.77 154.253
C 140.367 156.229 140.643 158.476 140.646 160.494
C 140.653 164.329 140.691 168.164 140.71 171.999
C 140.771 184.455 141.023 196.946 140.865 209.399
C 139.604 210.505 137.86 211.324 136.422 212.198
C 133.937 213.71 131.617 215.481 129.167 217.048
C 127.685 217.997 125.284 219.017 124.302 220.48 Z"
opacity="1" fill="rgba(255, 255, 255, 1)" fill-rule="evenodd" />
<path d="
M 218.975 133.532
C 232.264 115.673 246.904 98.811 260.304 81.051
C 257.748 76.909 254.394 73.058 251.436 69.19
C 247.061 63.468 242.967 57.525 238.711 51.714
C 236.055 48.089 232.274 44.077 230.554 39.909
C 229.991 38.545 230.382 36.561 230.382 35.104
C 230.384 31.045 230.76 26.946 230.491 22.896
C 231.421 22.421 232.805 22.183 233.842 22.524
C 235.172 22.962 236.493 24.418 237.531 25.323
C 239.489 27.03 241.526 28.623 243.531 30.275
C 251.576 36.904 259.697 43.447 267.71 50.113
C 271.382 53.167 276.088 56.067 279.163 59.712
C 279.881 64.261 279.243 69.388 279.266 74.001
C 279.319 84.96 279.033 95.988 279.408 106.939
C 287.457 106.096 295.92 106.88 304.012 106.888
C 316.162 106.9 328.412 106.445 340.549 106.927
C 340.852 106.842 340.643 104.454 340.649 103.998
C 340.686 101.166 340.706 98.335 340.722 95.503
C 340.772 86.67 340.73 77.836 340.708 69.002
C 340.702 66.53 340.72 64.053 340.672 61.581
C 340.654 60.603 340.403 59.328 340.795 58.438
C 342.496 56.536 344.62 55.008 346.479 53.262
C 350.798 49.208 355.229 45.285 359.592 41.28
C 364.543 36.736 369.499 32.19 374.341 27.531
C 375.868 26.062 377.134 24.205 378.701 22.828
C 386.108 22.513 393.745 22.356 401.147 22.753
C 401.786 23.647 401.318 25.885 401.316 26.991
C 401.31 30.825 401.308 34.659 401.299 38.493
C 401.266 52.826 401.308 67.16 401.298 81.493
C 401.269 120.494 401.311 159.494 401.326 198.495
C 401.33 210.661 401.31 222.828 401.319 234.994
C 401.322 238.828 401.331 242.661 401.326 246.495
C 401.324 248.033 400.93 250.176 401.3 251.639
C 396.457 251.685 391.599 251.563 386.752 251.55
C 384.227 251.543 381.11 251.932 378.661 251.326
C 376.325 249.767 374.356 247.136 372.315 245.191
C 368.205 241.275 363.944 237.504 359.755 233.673
C 355.336 229.633 350.797 225.716 346.399 221.654
C 344.552 219.947 342.303 218.573 340.709 216.612
C 340.214 214.848 340.563 212.581 340.568 210.746
C 340.579 206.663 340.586 202.58 340.584 198.497
C 340.58 190.165 340.615 181.833 340.662 173.501
C 340.685 169.466 340.191 165.017 340.781 161.04
C 335.751 161.574 330.34 160.974 325.272 160.956
C 315.185 160.921 305.096 160.967 295.009 160.981
C 291.172 160.986 287.336 161.063 283.499 161.079
C 282.63 161.082 279.981 160.654 279.417 161.309
C 278.841 179.007 280.291 196.828 279.408 214.506
C 279.116 215.57 277.383 216.368 276.529 216.983
C 273.813 218.942 271.367 221.263 268.716 223.305
C 259.723 230.231 251.054 237.623 242.262 244.797
C 240.285 246.411 238.299 248 236.37 249.671
C 235.582 250.352 234.793 251.421 233.846 251.872
C 232.924 252.311 231.628 252.082 230.654 251.998
C 229.573 248.5 230.393 243.814 230.329 240.153
C 230.302 238.585 229.894 236.504 230.365 234.995
C 231.217 232.269 234.216 229.457 235.812 227.079
C 240.249 220.47 244.946 214.044 249.564 207.561
C 252.465 203.486 255.17 199.234 258.171 195.236
C 258.671 194.57 261.129 191.912 260.814 191.207
C 250.271 177.787 240.301 163.851 230.149 150.134
C 227.295 146.278 224.259 142.551 221.561 138.58
C 220.692 137.301 218.772 135.506 218.681 133.979
C 218.779 133.83 218.877 133.681 218.975 133.532 Z
M 228.902 131.02
C 228.805 131.281 228.708 131.541 228.611 131.802
C 262.231 131.443 295.885 131.696 329.508 131.832
C 341.549 131.88 353.645 132.314 365.674 132.155
C 366.253 134.128 365.957 136.465 365.96 138.509
C 365.965 142.341 365.976 146.174 365.984 150.007
C 366.011 162.533 366.071 175.059 366.121 187.585
C 366.137 191.676 366.153 195.768 366.202 199.859
C 366.22 201.394 365.749 203.716 366.349 205.119
C 367.609 206.636 369.328 207.821 370.799 209.124
C 372.455 210.592 373.937 212.255 375.691 213.611
C 376.023 212.906 375.698 211.298 375.695 210.5
C 375.683 208.001 375.708 205.502 375.724 203.002
C 375.783 194.003 375.734 185.002 375.728 176.002
C 375.708 149.003 375.723 122.004 375.756 95.005
C 375.766 87.173 375.74 79.34 375.792 71.508
C 375.807 69.23 375.766 66.949 375.814 64.672
C 375.84 63.471 376.049 62.001 375.602 60.871
C 372.468 63.761 368.951 66.554 366.039 69.653
C 365.8 79.899 366.209 90.235 366.242 100.497
C 366.251 103.331 366.259 106.164 366.282 108.997
C 366.292 110.31 366.587 111.874 366.349 113.155
C 364.228 113.345 362.121 112.891 360 112.926
C 359.398 109.09 359.844 104.885 359.848 101.004
C 359.855 93.504 359.839 86.004 359.842 78.505
C 359.843 75.672 359.847 72.839 359.831 70.006
C 359.825 69.013 359.454 67.382 359.989 66.505
C 361.177 64.556 363.843 62.945 365.532 61.429
C 368.946 58.365 372.168 55.124 375.755 52.256
C 376.291 50.846 375.846 48.534 375.874 47.003
C 375.949 42.95 376.284 38.662 375.969 34.633
C 375.57 34.583 374.387 35.943 374.026 36.279
C 372.261 37.923 370.654 39.726 368.857 41.345
C 363.796 45.905 358.797 50.544 353.759 55.132
C 351.469 57.217 348.923 59.188 346.864 61.501
C 346.427 63.351 346.78 65.592 346.787 67.494
C 346.802 71.328 346.803 75.162 346.813 78.995
C 346.844 90.355 346.309 101.868 346.847 113.209
C 339.445 113.633 331.914 113.238 324.498 113.244
C 307.42 113.256 290.326 113.037 273.253 113.171
C 272.757 109.037 273.181 104.687 273.081 100.522
C 272.778 87.918 273.469 75.256 273.044 62.662
C 271.057 60.096 267.361 58.111 264.861 56.011
C 258.476 50.644 251.913 45.49 245.419 40.251
C 243.339 38.573 241.241 36.919 239.23 35.158
C 238.746 34.734 238.154 34.354 237.702 33.904
C 237.543 33.746 237.478 33.241 237.293 33.369
C 236.974 33.589 237.102 35.393 237.034 35.846
C 236.449 39.75 240.144 42.953 242.336 45.828
C 247.827 53.033 252.842 60.601 258.296 67.835
C 261.508 72.096 265.257 76.389 267.964 80.983
C 267.808 82.427 266.008 84.024 265.123 85.146
C 262.618 88.322 260.075 91.471 257.59 94.661
C 248.116 106.825 238.042 118.609 228.902 131.02 Z
M 229.063 138.116
C 232.353 143.629 236.982 148.641 240.923 153.713
C 246.794 161.267 252.188 169.192 257.908 176.859
C 260.591 180.456 263.404 183.96 266.041 187.592
C 266.739 188.553 268.598 190.312 268.705 191.461
C 268.337 192.527 267.336 193.453 266.68 194.368
C 265.196 196.441 263.647 198.473 262.22 200.586
C 256.343 209.294 249.926 217.623 244.01 226.303
C 241.121 230.542 235.717 235.384 236.471 240.968
C 237.516 240.674 238.521 239.409 239.364 238.734
C 241.707 236.857 243.988 234.902 246.359 233.056
C 255.344 226.061 264.15 218.78 272.979 211.593
C 273.559 210.47 273.161 208.462 273.168 207.213
C 273.19 203.476 273.136 199.739 273.146 196.003
C 273.17 187.169 273.146 178.339 273.108 169.505
C 273.086 164.666 272.69 159.584 273.222 154.772
C 290.978 154.783 308.747 154.701 326.507 154.684
C 331.325 154.679 336.142 154.669 340.959 154.703
C 342.483 154.713 345.573 154.147 346.881 154.931
C 346.042 168.504 346.756 182.393 346.809 195.995
C 346.826 200.468 346.457 205.204 347.086 209.635
C 347.27 210.932 346.706 212.591 347.185 213.787
C 351.609 218.2 356.652 222.073 361.258 226.303
C 366.069 230.72 370.598 235.696 375.682 239.786
C 375.779 239.795 375.686 238.188 375.684 238.008
C 375.67 236.674 375.654 235.339 375.641 234.005
C 375.605 230.18 375.746 226.357 375.757 222.534
C 374.895 221.238 373.227 220.284 372.074 219.241
C 369.5 216.913 367.095 214.403 364.581 212.012
C 363.045 210.552 361.088 209.256 359.888 207.494
C 359.384 205.885 359.764 203.697 359.764 202.006
C 359.764 198.34 359.77 194.673 359.766 191.006
C 359.752 178.838 359.709 166.67 359.688 154.502
C 359.682 150.669 359.714 146.836 359.739 143.004
C 359.747 141.639 360.225 139.51 359.697 138.248
C 350.831 138.617 341.875 138.235 333 138.235
C 315 138.235 297 138.232 279 138.237
C 267.834 138.239 256.668 138.233 245.501 138.22
C 240.143 138.213 234.364 138.822 229.063 138.116 Z
M 382.021 94.124
C 381.49 105.871 381.984 117.749 381.978 129.508
C 381.965 155.51 382.159 181.511 382.131 207.513
C 382.121 217.008 382.156 226.502 382.181 235.997
C 382.187 238.329 382.248 240.662 382.197 242.994
C 382.182 243.685 381.942 244.961 382.42 245.423
C 386.498 244.957 390.768 245.409 394.872 245.331
C 395.31 242.65 395.079 239.603 395.071 236.884
C 395.056 232.166 395.062 227.447 395.026 222.729
C 394.919 208.82 394.947 194.911 394.92 181.002
C 394.854 147.503 394.901 114 394.943 80.501
C 394.957 69.38 395.065 58.27 395.066 47.151
C 395.067 41.084 394.779 34.981 395.034 28.924
C 391.094 28.821 386.043 28.167 382.209 29.098
C 382.327 43.563 382.141 58.03 382.134 72.496
C 382.131 77.329 382.135 82.162 382.12 86.995
C 382.114 89.275 382.439 91.885 382.021 94.124 Z"
opacity="1" fill="rgba(255, 255, 255, 1)" fill-rule="evenodd" />
</svg>