<svg xmlns="http://www.w3.org/2000/svg" version="1.1" xmlns:xlink="http://www.w3.org/1999/xlink" viewBox="0 0 3.9782049327859688 3.9562380162658948"><g transform="matrix(1,0,0,1,1.4306002691273594,1.6031190081329472)"><g transform="matrix(1,0,0,1,0,0)"><g clip-path="url(#SvgjsClipPath1000)"><path d=" M 2.173070561491101 0.375 C 2.173070561491101 1.272767563171047 1.4452863021766347 2.000551822485513 0.5475187390055878 2.000551822485513 C -0.35024882416545966 2.000551822485513 -1.0780330834799257 1.272767563171047 -1.0780330834799257 0.375 C -1.0780330834799257 -0.5227675631710474 -0.35024882416545966 -1.2505518224855134 0.5475187390055878 -1.2505518224855134 C 1.4452863021766347 -1.2505518224855134 2.173070561491101 -0.5227675631710474 2.173070561491101 0.375 Z" fill="#3361e1" transform="matrix(1,0,0,1,0,0)" fill-rule="nonzero"></path></g></g><g transform="matrix(1,0,0,1,0,0)"><path d=" M 0.075 0 L 0.107 0 Q 0.17200000000000001 0 0.216 0.04049999999999998 Q 0.26 0.08099999999999996 0.26 0.14400000000000002 Q 0.26 0.18199999999999994 0.23550000000000001 0.22150000000000003 Q 0.211 0.261 0.178 0.27299999999999996 Q 0.255 0.292 0.306 0.355 Q 0.357 0.418 0.357 0.5135 Q 0.357 0.609 0.28400000000000003 0.6795 Q 0.211 0.75 0.107 0.75 L 0.075 0.75 L 0.075 0 M 0.107 0.291 L 0.107 0.722 L 0.115 0.722 Q 0.201 0.722 0.2635 0.658 Q 0.326 0.594 0.326 0.506 Q 0.326 0.418 0.264 0.3545 Q 0.202 0.291 0.115 0.291 L 0.107 0.291 M 0.107 0.028000000000000025 L 0.107 0.264 L 0.115 0.264 Q 0.16 0.264 0.1945 0.22750000000000004 Q 0.229 0.19099999999999995 0.229 0.14349999999999996 Q 0.229 0.09599999999999997 0.195 0.061999999999999944 Q 0.161 0.028000000000000025 0.115 0.028000000000000025 L 0.107 0.028000000000000025 M 1.0090239257812499 0 L 1.04202392578125 0 L 1.04202392578125 0.75 L 1.0090239257812499 0.75 L 1.0090239257812499 0.46399999999999997 L 0.49502392578124993 0.46399999999999997 L 0.49502392578124993 0.75 L 0.46202392578124996 0.75 L 0.46202392578124996 0 L 0.49502392578124993 0 L 0.49502392578124993 0.435 L 1.0090239257812499 0.435 L 1.0090239257812499 0" fill="#ffffff" fill-rule="nonzero"></path></g><g transform="matrix(1,0,0,1,0,0)"></g></g><defs><clipPath id="SvgjsClipPath1000"><path d=" M -1.1 -1.2725187390055879 h 3.31700439453125 v 3.2950374780111757 h -3.31700439453125 Z"></path></clipPath></defs></svg>